<svg xmlns="http://www.w3.org/2000/svg" viewBox="0 0 512 640"><path d="M503.87 314.7c0-41-15.73-79.87-43.81-111.22 1.6-15.61 3.36-51.21-8-87.2-6.78-21.53-17.25-40.07-31.06-55.09-15.36-16.65-34.95-29-58.27-36.84C361.25 11 348.8.53 333.72.53h-80.25c-15.09 0-27.53 10.47-29 23.82-23.25 7.8-42.79 20.12-58.13 36.69C152.51 76 142 94.5 135.21 116c-11.47 36.14-9.68 72-8.09 87.51a179.77 179.77 0 0 0-21.2 29c-19.94-30-33.58-39-35.27-40a10 10 0 0 0-5.18-1.48l-47.25-.29a10 10 0 0 0-8.47 15.4c0 .08 4.75 7.65 9.4 24.68 4.31 15.77 9.45 43.08 9.45 83.6 0 47.56 13.08 83 38.87 105.32 24.85 21.51 54.85 24.89 71.28 24.89 2.91 0 5.38-.1 7.34-.23a208 208 0 0 0 27.9 20V481a30.48 30.48 0 0 0 30.45 30.45h178.3A30.48 30.48 0 0 0 413.19 481v-16.73c56.89-34.04 90.68-89.56 90.68-149.57zM253.47 20.53h80.25c5.36 0 9.1 3.37 9.1 6.39s-3.74 6.4-9.1 6.4h-80.25c-5.37 0-9.11-3.37-9.11-6.4s3.74-6.39 9.11-6.39zM154.27 122c12.49-39.36 38.2-65.79 76.44-78.67a30.24 30.24 0 0 0 22.76 10h80.25a30.23 30.23 0 0 0 22.75-10C394.8 56.26 420.54 82.79 433 122.3c7.31 23.18 8.58 46.32 8.18 62.84a208.27 208.27 0 0 0-25.32-18.36 26.67 26.67 0 0 0 2.42-13.27c-.45-4.77-2.64-11.65-10.56-17.35a9.86 9.86 0 0 0-3.24-1.54l-76.24-20.57c0-.7.07-1.39.07-2.09 0-19.58-15.58-35.51-34.72-35.51S258.88 92.38 258.88 112c0 .7 0 1.39.06 2.09l-76.24 20.53a9.72 9.72 0 0 0-3.23 1.54c-7.93 5.7-10.12 12.58-10.56 17.35a26.76 26.76 0 0 0 2.41 13.27A207.38 207.38 0 0 0 146 185.14c-.39-16.56.88-39.84 8.27-63.14zm34.55 33.35a3 3 0 0 1 1.14-2l83.27-22.47A10 10 0 0 0 280 117.7a16.34 16.34 0 0 1-1.09-5.74c0-8.55 6.6-15.51 14.71-15.51s14.72 7 14.72 15.51a16.13 16.13 0 0 1-1.1 5.74 10 10 0 0 0 6.76 13.21l83.27 22.47a3 3 0 0 1 1.14 2 9.21 9.21 0 0 1-1.51 4.8H190.34a9.11 9.11 0 0 1-1.52-4.81zM48.6 314.33c0-53.24-8.42-86.18-14.87-103.58l28.36.17c4.54 3.72 16.82 15.28 33.44 42.46a160.42 160.42 0 0 0-12.21 61.32c0 40 15 78 41.85 108.94-13.28-1.75-30.17-6.64-44.61-19.11-21.21-18.36-31.96-48.7-31.96-90.2zm334.14 177.14h-178.3A10.46 10.46 0 0 1 194 481v-12.55h199.2V481a10.46 10.46 0 0 1-10.46 10.47zm17.93-43H186.52a187.33 187.33 0 0 1-29.81-21.39 10.58 10.58 0 0 0-1.38-1.21c-33.1-29.74-52-69.27-52-111.14a140.53 140.53 0 0 1 12.23-57.17 9.3 9.3 0 0 0 .72-1.61c13.94-30.43 38.63-57 71.65-75.77h211.33c53 30.2 84.61 80.33 84.61 134.55 0 53.62-31.05 103.43-83.2 133.71z"/><path d="M288.17 303.54a55 55 0 0 0-54.89 54.88 10 10 0 0 0 10 10h89.78a10 10 0 0 0 10-10 55 55 0 0 0-54.89-54.88zm93.43-32.92a10 10 0 0 0-14.14 0l-6.38 6.38-6.38-6.38a10 10 0 0 0-14.15 14.14l6.39 6.38-6.39 6.38a10 10 0 0 0 14.15 14.15l6.38-6.39 6.38 6.39a10 10 0 0 0 14.14-14.15l-6.38-6.38 6.38-6.38a10 10 0 0 0 0-14.14zm-145.81 26.9l-6.38-6.38 6.38-6.38a10 10 0 0 0-14.15-14.14l-6.38 6.38-6.38-6.38a10 10 0 0 0-14.14 14.14l6.38 6.38-6.38 6.38a10 10 0 0 0 14.14 14.15l6.38-6.39 6.38 6.39a10 10 0 1 0 14.15-14.15z"/></svg>