<svg xmlns="http://www.w3.org/2000/svg" viewBox="0 0 100 100"><path d="M94.527 48.329c-3.073-7.952-9.418-20.607-13.14-28.897-.796-1.772-.87-8.474-3.094-9.441-2.224-.967-6.671 2.19-13.632 2.287-1.86 2.232-4.634 6.293-5.815 8.048-.203-.524-.683-.893-1.243-.893h-.483v-5.317a.58.58 0 0 0-.58-.58l-34.375-4.67c-2.088-.284-1.892 1.325-1.734 1.604l4.695 8.964h-.2c-.744 0-1.347.649-1.347 1.45l-1.36 8.121c0 .801.649 1.45 1.45 1.45h-.299c-.263 0-.509-.071-.722-.194C12.083 36.869 5 48.896 5 62.068c0 17.499 16.102 29.101 35.965 29.101 19.863 0 35.965-11.602 35.965-29.101 0-13.118-7.026-25.098-17.518-31.724.527-.217.898-.735.898-1.34l-.186-1.11c2.562-1.67 7.03-4.617 8.31-5.697 1.827-1.541 5.417-2.367 7.444 2.03 1.163 2.523 7.086 18.029 13.68 25.509 1.225 1.39 2.705 2.087 4.053 2.144.72.03 2.125-.422.916-3.551zM60.204 36.254c7.715 6.248 12.375 15.818 12.375 25.814 0 7.037-3.065 13.152-8.863 17.685-5.828 4.556-13.908 7.065-22.752 7.065-8.843 0-16.923-2.509-22.752-7.065-5.798-4.532-8.863-10.648-8.863-17.685 0-9.775 4.456-19.142 11.867-25.394.781-.659 1.959-1.87 4.956-1.87h29.681c2.418 0 3.727.944 4.351 1.45z"/><path d="M11.785 61.75c-.001.106-.005.212-.005.318 0 6.262 2.742 11.715 7.929 15.77 5.403 4.224 12.952 6.55 21.255 6.55s15.852-2.326 21.255-6.55c5.187-4.055 7.929-9.508 7.929-15.77 0-.106-.003-.212-.005-.318H11.785zM58.32 39.027c-2.532-1.211-2.993-.566-1.023 1.434 0 0 3.078 3.126 4.17 8.038 1.091 4.912-.374 9.047-.374 9.047-.938 2.646-.247 3.036 1.534.866 0 0 4.059-4.943 2.761-10.785s-7.068-8.6-7.068-8.6z"/><path d="M58.32 39.027c-2.532-1.211-2.993-.566-1.023 1.434 0 0 3.078 3.126 4.17 8.038 1.091 4.912-.374 9.047-.374 9.047-.938 2.646-.247 3.036 1.534.866 0 0 4.059-4.943 2.761-10.785s-7.068-8.6-7.068-8.6z"/></svg>